<mxfile host="app.diagrams.net" agent="Mozilla/5.0 (Windows NT 10.0; Win64; x64; rv:139.0) Gecko/20100101 Firefox/139.0" version="27.1.4">
  <diagram name="Page-1" id="-FD0RcOmO0Cx_8AvNTJQ">
    <mxGraphModel dx="719" dy="369" grid="1" gridSize="10" guides="1" tooltips="1" connect="1" arrows="1" fold="1" page="1" pageScale="1" pageWidth="850" pageHeight="1100" math="0" shadow="0">
      <root>
        <mxCell id="0" />
        <mxCell id="1" parent="0" />
        <mxCell id="ylxhSMzxibI2ixlFGiNv-2" value="" style="html=1;shape=mxgraph.electrical.electro-mechanical.singleSwitch;aspect=fixed;elSwitchState=off;direction=north;" vertex="1" parent="1">
          <mxGeometry x="170" y="140" width="20" height="75" as="geometry" />
        </mxCell>
        <mxCell id="ylxhSMzxibI2ixlFGiNv-3" value="" style="pointerEvents=1;fillColor=strokeColor;verticalLabelPosition=bottom;shadow=0;dashed=0;align=center;html=1;verticalAlign=top;shape=mxgraph.electrical.diodes.diode;direction=north;" vertex="1" parent="1">
          <mxGeometry x="220" y="152.5" width="20" height="50" as="geometry" />
        </mxCell>
        <mxCell id="ylxhSMzxibI2ixlFGiNv-4" style="edgeStyle=orthogonalEdgeStyle;rounded=0;orthogonalLoop=1;jettySize=auto;html=1;exitX=0;exitY=0.8;exitDx=0;exitDy=0;entryX=0;entryY=0.5;entryDx=0;entryDy=0;endArrow=none;startFill=0;entryPerimeter=0;" edge="1" parent="1" source="ylxhSMzxibI2ixlFGiNv-2" target="ylxhSMzxibI2ixlFGiNv-3">
          <mxGeometry relative="1" as="geometry" />
        </mxCell>
        <mxCell id="ylxhSMzxibI2ixlFGiNv-5" style="edgeStyle=orthogonalEdgeStyle;rounded=0;orthogonalLoop=1;jettySize=auto;html=1;exitX=1;exitY=0.8;exitDx=0;exitDy=0;entryX=1;entryY=0.5;entryDx=0;entryDy=0;endArrow=none;startFill=0;entryPerimeter=0;" edge="1" parent="1" source="ylxhSMzxibI2ixlFGiNv-2" target="ylxhSMzxibI2ixlFGiNv-3">
          <mxGeometry relative="1" as="geometry" />
        </mxCell>
        <mxCell id="ylxhSMzxibI2ixlFGiNv-6" value="" style="html=1;shape=mxgraph.electrical.electro-mechanical.singleSwitch;aspect=fixed;elSwitchState=off;direction=north;" vertex="1" parent="1">
          <mxGeometry x="640" y="140" width="20" height="75" as="geometry" />
        </mxCell>
        <mxCell id="ylxhSMzxibI2ixlFGiNv-7" value="" style="pointerEvents=1;fillColor=strokeColor;verticalLabelPosition=bottom;shadow=0;dashed=0;align=center;html=1;verticalAlign=top;shape=mxgraph.electrical.diodes.diode;direction=north;" vertex="1" parent="1">
          <mxGeometry x="690" y="152.5" width="20" height="50" as="geometry" />
        </mxCell>
        <mxCell id="ylxhSMzxibI2ixlFGiNv-8" style="edgeStyle=orthogonalEdgeStyle;rounded=0;orthogonalLoop=1;jettySize=auto;html=1;exitX=0;exitY=0.8;exitDx=0;exitDy=0;entryX=0;entryY=0.5;entryDx=0;entryDy=0;endArrow=none;startFill=0;entryPerimeter=0;" edge="1" parent="1" source="ylxhSMzxibI2ixlFGiNv-6" target="ylxhSMzxibI2ixlFGiNv-7">
          <mxGeometry relative="1" as="geometry" />
        </mxCell>
        <mxCell id="ylxhSMzxibI2ixlFGiNv-9" style="edgeStyle=orthogonalEdgeStyle;rounded=0;orthogonalLoop=1;jettySize=auto;html=1;exitX=1;exitY=0.8;exitDx=0;exitDy=0;entryX=1;entryY=0.5;entryDx=0;entryDy=0;endArrow=none;startFill=0;entryPerimeter=0;" edge="1" parent="1" source="ylxhSMzxibI2ixlFGiNv-6" target="ylxhSMzxibI2ixlFGiNv-7">
          <mxGeometry relative="1" as="geometry" />
        </mxCell>
        <mxCell id="ylxhSMzxibI2ixlFGiNv-14" value="" style="html=1;shape=mxgraph.electrical.electro-mechanical.singleSwitch;aspect=fixed;elSwitchState=off;direction=north;" vertex="1" parent="1">
          <mxGeometry x="170" y="360" width="20" height="75" as="geometry" />
        </mxCell>
        <mxCell id="ylxhSMzxibI2ixlFGiNv-15" value="" style="pointerEvents=1;fillColor=strokeColor;verticalLabelPosition=bottom;shadow=0;dashed=0;align=center;html=1;verticalAlign=top;shape=mxgraph.electrical.diodes.diode;direction=north;" vertex="1" parent="1">
          <mxGeometry x="220" y="372.5" width="20" height="50" as="geometry" />
        </mxCell>
        <mxCell id="ylxhSMzxibI2ixlFGiNv-16" style="edgeStyle=orthogonalEdgeStyle;rounded=0;orthogonalLoop=1;jettySize=auto;html=1;exitX=0;exitY=0.8;exitDx=0;exitDy=0;entryX=0;entryY=0.5;entryDx=0;entryDy=0;endArrow=none;startFill=0;entryPerimeter=0;" edge="1" parent="1" source="ylxhSMzxibI2ixlFGiNv-14" target="ylxhSMzxibI2ixlFGiNv-15">
          <mxGeometry relative="1" as="geometry" />
        </mxCell>
        <mxCell id="ylxhSMzxibI2ixlFGiNv-17" style="edgeStyle=orthogonalEdgeStyle;rounded=0;orthogonalLoop=1;jettySize=auto;html=1;exitX=1;exitY=0.8;exitDx=0;exitDy=0;entryX=1;entryY=0.5;entryDx=0;entryDy=0;endArrow=none;startFill=0;entryPerimeter=0;" edge="1" parent="1" source="ylxhSMzxibI2ixlFGiNv-14" target="ylxhSMzxibI2ixlFGiNv-15">
          <mxGeometry relative="1" as="geometry" />
        </mxCell>
        <mxCell id="ylxhSMzxibI2ixlFGiNv-18" value="" style="html=1;shape=mxgraph.electrical.electro-mechanical.singleSwitch;aspect=fixed;elSwitchState=off;direction=north;" vertex="1" parent="1">
          <mxGeometry x="640" y="360" width="20" height="75" as="geometry" />
        </mxCell>
        <mxCell id="ylxhSMzxibI2ixlFGiNv-19" value="" style="pointerEvents=1;fillColor=strokeColor;verticalLabelPosition=bottom;shadow=0;dashed=0;align=center;html=1;verticalAlign=top;shape=mxgraph.electrical.diodes.diode;direction=north;" vertex="1" parent="1">
          <mxGeometry x="690" y="372.5" width="20" height="50" as="geometry" />
        </mxCell>
        <mxCell id="ylxhSMzxibI2ixlFGiNv-20" style="edgeStyle=orthogonalEdgeStyle;rounded=0;orthogonalLoop=1;jettySize=auto;html=1;exitX=0;exitY=0.8;exitDx=0;exitDy=0;entryX=0;entryY=0.5;entryDx=0;entryDy=0;endArrow=none;startFill=0;entryPerimeter=0;" edge="1" parent="1" source="ylxhSMzxibI2ixlFGiNv-18" target="ylxhSMzxibI2ixlFGiNv-19">
          <mxGeometry relative="1" as="geometry" />
        </mxCell>
        <mxCell id="ylxhSMzxibI2ixlFGiNv-21" style="edgeStyle=orthogonalEdgeStyle;rounded=0;orthogonalLoop=1;jettySize=auto;html=1;exitX=1;exitY=0.8;exitDx=0;exitDy=0;entryX=1;entryY=0.5;entryDx=0;entryDy=0;endArrow=none;startFill=0;entryPerimeter=0;" edge="1" parent="1" source="ylxhSMzxibI2ixlFGiNv-18" target="ylxhSMzxibI2ixlFGiNv-19">
          <mxGeometry relative="1" as="geometry" />
        </mxCell>
        <mxCell id="ylxhSMzxibI2ixlFGiNv-24" style="edgeStyle=orthogonalEdgeStyle;rounded=0;orthogonalLoop=1;jettySize=auto;html=1;exitX=1;exitY=0.5;exitDx=0;exitDy=0;exitPerimeter=0;endArrow=none;startFill=0;" edge="1" parent="1" source="ylxhSMzxibI2ixlFGiNv-23">
          <mxGeometry relative="1" as="geometry">
            <mxPoint x="700" y="120" as="targetPoint" />
            <Array as="points">
              <mxPoint x="70" y="60" />
              <mxPoint x="700" y="60" />
            </Array>
          </mxGeometry>
        </mxCell>
        <mxCell id="ylxhSMzxibI2ixlFGiNv-71" style="edgeStyle=orthogonalEdgeStyle;rounded=0;orthogonalLoop=1;jettySize=auto;html=1;endArrow=none;startFill=0;" edge="1" parent="1" source="ylxhSMzxibI2ixlFGiNv-23">
          <mxGeometry relative="1" as="geometry">
            <mxPoint x="700" y="430" as="targetPoint" />
            <Array as="points">
              <mxPoint x="70" y="520" />
              <mxPoint x="700" y="520" />
              <mxPoint x="700" y="450" />
            </Array>
          </mxGeometry>
        </mxCell>
        <mxCell id="ylxhSMzxibI2ixlFGiNv-23" value="" style="verticalLabelPosition=bottom;shadow=0;dashed=0;align=center;fillColor=strokeColor;html=1;verticalAlign=top;strokeWidth=1;shape=mxgraph.electrical.miscellaneous.monocell_battery;direction=north;" vertex="1" parent="1">
          <mxGeometry x="40" y="230" width="60" height="100" as="geometry" />
        </mxCell>
        <mxCell id="ylxhSMzxibI2ixlFGiNv-27" value="" style="pointerEvents=1;verticalLabelPosition=bottom;shadow=0;dashed=0;align=center;html=1;verticalAlign=top;shape=mxgraph.electrical.signal_sources.source;aspect=fixed;points=[[0.5,0,0],[1,0.5,0],[0.5,1,0],[0,0.5,0]];elSignalType=ac;" vertex="1" parent="1">
          <mxGeometry x="470" y="270" width="40" height="40" as="geometry" />
        </mxCell>
        <mxCell id="ylxhSMzxibI2ixlFGiNv-28" value="" style="endArrow=none;html=1;rounded=0;" edge="1" parent="1">
          <mxGeometry width="50" height="50" relative="1" as="geometry">
            <mxPoint x="230" y="120" as="sourcePoint" />
            <mxPoint x="230" y="60" as="targetPoint" />
          </mxGeometry>
        </mxCell>
        <mxCell id="ylxhSMzxibI2ixlFGiNv-29" value="" style="endArrow=none;html=1;rounded=0;" edge="1" parent="1">
          <mxGeometry width="50" height="50" relative="1" as="geometry">
            <mxPoint x="230" y="520" as="sourcePoint" />
            <mxPoint x="230" y="450" as="targetPoint" />
          </mxGeometry>
        </mxCell>
        <mxCell id="ylxhSMzxibI2ixlFGiNv-30" value="" style="pointerEvents=1;verticalLabelPosition=bottom;shadow=0;dashed=0;align=center;html=1;verticalAlign=top;shape=mxgraph.electrical.inductors.inductor_5;" vertex="1" parent="1">
          <mxGeometry x="367" y="283" width="80" height="14" as="geometry" />
        </mxCell>
        <mxCell id="ylxhSMzxibI2ixlFGiNv-43" style="edgeStyle=orthogonalEdgeStyle;rounded=0;orthogonalLoop=1;jettySize=auto;html=1;endArrow=none;startFill=0;entryX=0;entryY=0.645;entryDx=0;entryDy=0;entryPerimeter=0;" edge="1" parent="1" source="ylxhSMzxibI2ixlFGiNv-31" target="ylxhSMzxibI2ixlFGiNv-30">
          <mxGeometry relative="1" as="geometry">
            <mxPoint x="348.5" y="290" as="targetPoint" />
            <Array as="points">
              <mxPoint x="349" y="300" />
              <mxPoint x="349" y="300" />
              <mxPoint x="349" y="292" />
            </Array>
          </mxGeometry>
        </mxCell>
        <mxCell id="ylxhSMzxibI2ixlFGiNv-31" value="" style="pointerEvents=1;verticalLabelPosition=bottom;shadow=0;dashed=0;align=center;html=1;verticalAlign=top;shape=mxgraph.electrical.capacitors.capacitor_3;direction=south;" vertex="1" parent="1">
          <mxGeometry x="330" y="320" width="37" height="70" as="geometry" />
        </mxCell>
        <mxCell id="ylxhSMzxibI2ixlFGiNv-40" style="edgeStyle=orthogonalEdgeStyle;rounded=0;orthogonalLoop=1;jettySize=auto;html=1;endArrow=none;startFill=0;exitX=0;exitY=0.645;exitDx=0;exitDy=0;exitPerimeter=0;" edge="1" parent="1" source="ylxhSMzxibI2ixlFGiNv-33">
          <mxGeometry relative="1" as="geometry">
            <mxPoint x="230" y="340" as="targetPoint" />
          </mxGeometry>
        </mxCell>
        <mxCell id="ylxhSMzxibI2ixlFGiNv-33" value="" style="pointerEvents=1;verticalLabelPosition=bottom;shadow=0;dashed=0;align=center;html=1;verticalAlign=top;shape=mxgraph.electrical.inductors.inductor_5;direction=east;" vertex="1" parent="1">
          <mxGeometry x="250" y="283" width="80" height="14" as="geometry" />
        </mxCell>
        <mxCell id="ylxhSMzxibI2ixlFGiNv-34" value="" style="pointerEvents=1;verticalLabelPosition=bottom;shadow=0;dashed=0;align=center;html=1;verticalAlign=top;shape=mxgraph.electrical.signal_sources.signal_ground;" vertex="1" parent="1">
          <mxGeometry x="336" y="435" width="25" height="27" as="geometry" />
        </mxCell>
        <mxCell id="ylxhSMzxibI2ixlFGiNv-35" value="" style="pointerEvents=1;verticalLabelPosition=bottom;shadow=0;dashed=0;align=center;html=1;verticalAlign=top;shape=mxgraph.electrical.capacitors.capacitor_3;direction=south;" vertex="1" parent="1">
          <mxGeometry x="540" y="320" width="37" height="70" as="geometry" />
        </mxCell>
        <mxCell id="ylxhSMzxibI2ixlFGiNv-45" style="edgeStyle=orthogonalEdgeStyle;rounded=0;orthogonalLoop=1;jettySize=auto;html=1;exitX=1;exitY=0.645;exitDx=0;exitDy=0;exitPerimeter=0;endArrow=none;startFill=0;" edge="1" parent="1" source="ylxhSMzxibI2ixlFGiNv-36">
          <mxGeometry relative="1" as="geometry">
            <mxPoint x="700" y="230" as="targetPoint" />
          </mxGeometry>
        </mxCell>
        <mxCell id="ylxhSMzxibI2ixlFGiNv-36" value="" style="pointerEvents=1;verticalLabelPosition=bottom;shadow=0;dashed=0;align=center;html=1;verticalAlign=top;shape=mxgraph.electrical.inductors.inductor_5;" vertex="1" parent="1">
          <mxGeometry x="571" y="283" width="80" height="14" as="geometry" />
        </mxCell>
        <mxCell id="ylxhSMzxibI2ixlFGiNv-37" value="" style="pointerEvents=1;verticalLabelPosition=bottom;shadow=0;dashed=0;align=center;html=1;verticalAlign=top;shape=mxgraph.electrical.signal_sources.signal_ground;" vertex="1" parent="1">
          <mxGeometry x="546" y="435" width="25" height="27" as="geometry" />
        </mxCell>
        <mxCell id="ylxhSMzxibI2ixlFGiNv-41" style="edgeStyle=orthogonalEdgeStyle;rounded=0;orthogonalLoop=1;jettySize=auto;html=1;exitX=1;exitY=0.645;exitDx=0;exitDy=0;exitPerimeter=0;entryX=0;entryY=0.645;entryDx=0;entryDy=0;entryPerimeter=0;endArrow=none;startFill=0;" edge="1" parent="1" source="ylxhSMzxibI2ixlFGiNv-33" target="ylxhSMzxibI2ixlFGiNv-30">
          <mxGeometry relative="1" as="geometry" />
        </mxCell>
        <mxCell id="ylxhSMzxibI2ixlFGiNv-44" style="edgeStyle=orthogonalEdgeStyle;rounded=0;orthogonalLoop=1;jettySize=auto;html=1;entryX=0;entryY=0.5;entryDx=0;entryDy=0;entryPerimeter=0;exitX=1;exitY=0.645;exitDx=0;exitDy=0;exitPerimeter=0;endArrow=none;startFill=0;" edge="1" parent="1" source="ylxhSMzxibI2ixlFGiNv-30" target="ylxhSMzxibI2ixlFGiNv-27">
          <mxGeometry relative="1" as="geometry" />
        </mxCell>
        <mxCell id="ylxhSMzxibI2ixlFGiNv-48" style="edgeStyle=orthogonalEdgeStyle;rounded=0;orthogonalLoop=1;jettySize=auto;html=1;exitX=0;exitY=0.645;exitDx=0;exitDy=0;exitPerimeter=0;entryX=0;entryY=0.5;entryDx=0;entryDy=0;entryPerimeter=0;endArrow=none;startFill=0;" edge="1" parent="1" source="ylxhSMzxibI2ixlFGiNv-36" target="ylxhSMzxibI2ixlFGiNv-35">
          <mxGeometry relative="1" as="geometry" />
        </mxCell>
        <mxCell id="ylxhSMzxibI2ixlFGiNv-49" value="" style="endArrow=none;html=1;rounded=0;exitX=0;exitY=0.645;exitDx=0;exitDy=0;exitPerimeter=0;entryX=1.01;entryY=0.546;entryDx=0;entryDy=0;entryPerimeter=0;" edge="1" parent="1" source="ylxhSMzxibI2ixlFGiNv-36" target="ylxhSMzxibI2ixlFGiNv-27">
          <mxGeometry width="50" height="50" relative="1" as="geometry">
            <mxPoint x="560" y="300" as="sourcePoint" />
            <mxPoint x="520" y="300" as="targetPoint" />
          </mxGeometry>
        </mxCell>
        <mxCell id="ylxhSMzxibI2ixlFGiNv-50" style="edgeStyle=orthogonalEdgeStyle;rounded=0;orthogonalLoop=1;jettySize=auto;html=1;exitX=1;exitY=0.5;exitDx=0;exitDy=0;exitPerimeter=0;entryX=0.5;entryY=0;entryDx=0;entryDy=0;entryPerimeter=0;endArrow=none;startFill=0;" edge="1" parent="1" source="ylxhSMzxibI2ixlFGiNv-31" target="ylxhSMzxibI2ixlFGiNv-34">
          <mxGeometry relative="1" as="geometry" />
        </mxCell>
        <mxCell id="ylxhSMzxibI2ixlFGiNv-51" style="edgeStyle=orthogonalEdgeStyle;rounded=0;orthogonalLoop=1;jettySize=auto;html=1;exitX=1;exitY=0.5;exitDx=0;exitDy=0;exitPerimeter=0;entryX=0.5;entryY=0;entryDx=0;entryDy=0;entryPerimeter=0;endArrow=none;startFill=0;" edge="1" parent="1" source="ylxhSMzxibI2ixlFGiNv-35" target="ylxhSMzxibI2ixlFGiNv-37">
          <mxGeometry relative="1" as="geometry" />
        </mxCell>
        <mxCell id="ylxhSMzxibI2ixlFGiNv-52" value="" style="endArrow=none;html=1;rounded=0;" edge="1" parent="1">
          <mxGeometry width="50" height="50" relative="1" as="geometry">
            <mxPoint x="230" y="300" as="sourcePoint" />
            <mxPoint x="230" y="230" as="targetPoint" />
          </mxGeometry>
        </mxCell>
        <mxCell id="ylxhSMzxibI2ixlFGiNv-53" value="" style="endArrow=none;html=1;rounded=0;" edge="1" parent="1">
          <mxGeometry width="50" height="50" relative="1" as="geometry">
            <mxPoint x="700" y="340" as="sourcePoint" />
            <mxPoint x="700" y="290" as="targetPoint" />
          </mxGeometry>
        </mxCell>
        <mxCell id="ylxhSMzxibI2ixlFGiNv-55" value="&lt;font style=&quot;font-size: 16px;&quot;&gt;D&lt;sub&gt;1&lt;/sub&gt;&lt;/font&gt;" style="text;html=1;align=center;verticalAlign=middle;resizable=0;points=[];autosize=1;strokeColor=none;fillColor=none;" vertex="1" parent="1">
          <mxGeometry x="250" y="157.5" width="40" height="40" as="geometry" />
        </mxCell>
        <mxCell id="ylxhSMzxibI2ixlFGiNv-56" value="&lt;font style=&quot;font-size: 16px;&quot;&gt;D&lt;sub&gt;2&lt;/sub&gt;&lt;/font&gt;" style="text;html=1;align=center;verticalAlign=middle;resizable=0;points=[];autosize=1;strokeColor=none;fillColor=none;" vertex="1" parent="1">
          <mxGeometry x="730" y="157.5" width="40" height="40" as="geometry" />
        </mxCell>
        <mxCell id="ylxhSMzxibI2ixlFGiNv-57" value="&lt;font style=&quot;font-size: 16px;&quot;&gt;D&lt;sub&gt;3&lt;/sub&gt;&lt;/font&gt;" style="text;html=1;align=center;verticalAlign=middle;resizable=0;points=[];autosize=1;strokeColor=none;fillColor=none;" vertex="1" parent="1">
          <mxGeometry x="250" y="382.5" width="40" height="40" as="geometry" />
        </mxCell>
        <mxCell id="ylxhSMzxibI2ixlFGiNv-58" value="&lt;font style=&quot;font-size: 16px;&quot;&gt;D&lt;sub&gt;4&lt;/sub&gt;&lt;/font&gt;" style="text;html=1;align=center;verticalAlign=middle;resizable=0;points=[];autosize=1;strokeColor=none;fillColor=none;" vertex="1" parent="1">
          <mxGeometry x="720" y="377.5" width="40" height="40" as="geometry" />
        </mxCell>
        <mxCell id="ylxhSMzxibI2ixlFGiNv-59" value="&lt;font style=&quot;font-size: 16px;&quot;&gt;S&lt;sub&gt;1&lt;/sub&gt;&lt;/font&gt;" style="text;html=1;align=center;verticalAlign=middle;resizable=0;points=[];autosize=1;strokeColor=none;fillColor=none;" vertex="1" parent="1">
          <mxGeometry x="120" y="157.5" width="40" height="40" as="geometry" />
        </mxCell>
        <mxCell id="ylxhSMzxibI2ixlFGiNv-60" value="&lt;font style=&quot;font-size: 16px;&quot;&gt;S&lt;sub&gt;2&lt;/sub&gt;&lt;/font&gt;" style="text;html=1;align=center;verticalAlign=middle;resizable=0;points=[];autosize=1;strokeColor=none;fillColor=none;" vertex="1" parent="1">
          <mxGeometry x="600" y="157.5" width="40" height="40" as="geometry" />
        </mxCell>
        <mxCell id="ylxhSMzxibI2ixlFGiNv-61" value="&lt;font style=&quot;font-size: 16px;&quot;&gt;S&lt;sub&gt;3&lt;/sub&gt;&lt;/font&gt;" style="text;html=1;align=center;verticalAlign=middle;resizable=0;points=[];autosize=1;strokeColor=none;fillColor=none;" vertex="1" parent="1">
          <mxGeometry x="120" y="382.5" width="40" height="40" as="geometry" />
        </mxCell>
        <mxCell id="ylxhSMzxibI2ixlFGiNv-62" value="&lt;font style=&quot;font-size: 16px;&quot;&gt;S&lt;sub&gt;4&lt;/sub&gt;&lt;/font&gt;" style="text;html=1;align=center;verticalAlign=middle;resizable=0;points=[];autosize=1;strokeColor=none;fillColor=none;" vertex="1" parent="1">
          <mxGeometry x="590" y="377.5" width="40" height="40" as="geometry" />
        </mxCell>
        <mxCell id="ylxhSMzxibI2ixlFGiNv-63" value="&lt;font style=&quot;font-size: 16px;&quot;&gt;L&lt;sub&gt;i1&lt;/sub&gt;&lt;/font&gt;" style="text;html=1;align=center;verticalAlign=middle;whiteSpace=wrap;rounded=0;" vertex="1" parent="1">
          <mxGeometry x="260" y="240" width="60" height="30" as="geometry" />
        </mxCell>
        <mxCell id="ylxhSMzxibI2ixlFGiNv-64" value="&lt;font style=&quot;font-size: 16px;&quot;&gt;L&lt;sub&gt;i2&lt;/sub&gt;&lt;/font&gt;" style="text;html=1;align=center;verticalAlign=middle;whiteSpace=wrap;rounded=0;" vertex="1" parent="1">
          <mxGeometry x="581" y="240" width="60" height="30" as="geometry" />
        </mxCell>
        <mxCell id="ylxhSMzxibI2ixlFGiNv-65" value="&lt;font style=&quot;font-size: 16px;&quot;&gt;L&lt;sub&gt;o&lt;/sub&gt;&lt;/font&gt;" style="text;html=1;align=center;verticalAlign=middle;whiteSpace=wrap;rounded=0;" vertex="1" parent="1">
          <mxGeometry x="377" y="240" width="60" height="30" as="geometry" />
        </mxCell>
        <mxCell id="ylxhSMzxibI2ixlFGiNv-66" value="&lt;font style=&quot;font-size: 16px;&quot;&gt;C&lt;sub&gt;1&lt;/sub&gt;&lt;/font&gt;" style="text;html=1;align=center;verticalAlign=middle;whiteSpace=wrap;rounded=0;" vertex="1" parent="1">
          <mxGeometry x="361" y="342.5" width="60" height="30" as="geometry" />
        </mxCell>
        <mxCell id="ylxhSMzxibI2ixlFGiNv-67" value="&lt;font style=&quot;font-size: 16px;&quot;&gt;C&lt;sub&gt;2&lt;/sub&gt;&lt;/font&gt;" style="text;html=1;align=center;verticalAlign=middle;whiteSpace=wrap;rounded=0;" vertex="1" parent="1">
          <mxGeometry x="486" y="340" width="60" height="30" as="geometry" />
        </mxCell>
        <mxCell id="ylxhSMzxibI2ixlFGiNv-69" value="&lt;font style=&quot;font-size: 16px;&quot;&gt;V&lt;sub&gt;i&lt;/sub&gt;&lt;/font&gt;" style="text;html=1;align=center;verticalAlign=middle;whiteSpace=wrap;rounded=0;" vertex="1" parent="1">
          <mxGeometry x="100" y="267" width="60" height="30" as="geometry" />
        </mxCell>
        <mxCell id="ylxhSMzxibI2ixlFGiNv-70" value="&lt;font style=&quot;font-size: 16px;&quot;&gt;V&lt;sub&gt;o&lt;/sub&gt;&lt;/font&gt;" style="text;html=1;align=center;verticalAlign=middle;whiteSpace=wrap;rounded=0;" vertex="1" parent="1">
          <mxGeometry x="460" y="237" width="60" height="30" as="geometry" />
        </mxCell>
      </root>
    </mxGraphModel>
  </diagram>
</mxfile>
